<svg xmlns="http://www.w3.org/2000/svg" width="24" height="24" fill="none"><path fill="#F0F0F0" d="m13.949 12.118-2.847-.012h-.665v.986l.004 1.03 2.568.012h.94v-2.016Z"/><path fill="#4C38FF" d="m10.473 13.873-.114-1.248a.04.04 0 0 0-.038-.035s-6.316-.662-6.315-.622l.086 2.554 5.937-.536c.006 0 .011.246.017.243.046-.02.31-.208.4-.23.018-.005.03-.107.027-.126ZM19.043 12.888h-4.975v1.16c0 .03.171.058.163.086l5.711-.063.085-2.027c-.078.661-.738.654-.985.844Z"/><path fill="#4C38FF" d="M4.087 12.271s-.074.636 1.253.617c.994-.014 4.95 0 4.95 0l.342-.633 3.133-.026.466.565s3.99.17 4.81.094c1.08-.1 1-1.297 1-1.333V6.64H4.088v5.631ZM14.25 13.884H4.262v.007c.18.006-.175.439-.175.62l.165 5.106h15.643v-5.388c0-.164-.129-.294.027-.322l-.082-.023h-5.592Z"/><path stroke="#212125" stroke-linecap="round" stroke-linejoin="round" d="M10.484 5.297v-1.28h3.442v1.28M19.81 14.23v5.387H4.169v-5.394M13.983 12.888h4.974a1 1 0 0 0 1-1V6.64H4.002v5.248a1 1 0 0 0 1 1h5.204"/><path stroke="#212125" stroke-linecap="round" stroke-linejoin="round" d="M13.83 12.106H10.39v1.942h3.441v-1.942Z"/></svg>