<?xml version="1.0" encoding="UTF-8"?>
<svg id="uuid-38ee1247-f173-4771-95fc-2c0246380fbf" data-name="Layer 6" xmlns="http://www.w3.org/2000/svg" viewBox="0 0 401.9 405.65">
  <defs>
    <style>
      .uuid-aa7e4ef9-6ab2-43e9-9e42-a13e2e0c21f8 {
        fill: #1a1a1a;
        stroke-width: 0px;
      }
    </style>
  </defs>
  <path class="uuid-aa7e4ef9-6ab2-43e9-9e42-a13e2e0c21f8" d="m256.36,158.76c1.23-6.98,6.18-12.84,13.37-14.19,6.89-1.29,11,5.85,9.77,12.1-.26,1.29-2.27.88-2.71,0-1.06-2.1-1.11-4.48-1.98-6.67-1.43-3.6-5.51-2.71-8.25-1.39-1.55.75-2.99,1.77-4.27,2.98,1.74.27,3.44,1.43,4.56,2.7,2.31,2.6,3.9,7.67,2.64,11.01-.39,1.03-1.94.88-2.37,0-1.22-2.48-.66-5.46-1.9-8.02-1.04-2.15-2.71-2.99-4.67-3.78-1.34,1.66-2.42,3.53-3.09,5.49-.19.55-1.19.37-1.08-.24Zm18.78,2.14c-1.32,4.35-1.73,9.06-4.03,13.05-2.27,3.93-5.82,6.52-9.08,9.56-1.08,1.01.5,1.83,1.45,1.5,10.31-3.53,14.12-13.99,11.94-24.11-.02-.12-.24-.1-.27,0Zm-28.77,24.38c1.32-1.95,2.62-4.22,4.67-5.42.28-.01.56-.07.79-.19.22-.11.42-.26.61-.41.29-.08.6-.15.92-.2,2.64-.33,4.76,1.96,7.46,1.92.74,0,1.64-.94.8-1.54-2.3-1.61-4.66-3.08-7.3-3.16.37-1.31.44-2.76.31-3.97-.23-2.11-1.19-5.59-3.85-5.61-.65,0-1.42.42-1.44,1.15-.03,1.73,1.18,3.27,1.17,5.07,0,1.89-1.27,3.42-1.41,5.15-2.11,1.68-3.49,4.32-3.91,6.93-.09.58.93.62,1.18.26Zm-10.17-17.3c-.89,7.38-4.28,13.74-9.13,19.3-4.89,5.62-11.28,8.93-16.73,13.79-1.32,1.18.61,2.49,1.83,1.9,12.99-6.24,25.99-19.82,25.71-35-.02-.91-1.58-.87-1.69,0Zm-58.28,32.31c-5.18-2.04-8.45-5.55-12.68-8.89-.41-.32-1.49-.12-1.23.57,2.19,5.87,8.43,8.75,13.78,11.05,11.12,4.8,6,14.52,4.91,23.58-.16,1.31,2.19,1.52,2.75.6,3.8-6.27,5.1-15.57.52-21.87-2.07-2.85-4.89-3.81-8.04-5.05Zm-42.42-7.17c1.3-.18,2.68-1.67,2.52-3.01,1.22.06,2.03.99,3.25,1.15.48.06,1.13-.11,1.16-.71.07-1.7-2.71-2.41-4.02-2.5-1.77-.12-3.9.49-4.83,2.13-.85,1.5.15,3.17,1.93,2.93Zm22.22-60c17.17-7.49,28.35-13.83,37.33-11.87s20.63,8.3,20.63,8.3c-8.18-7.14-23.85-17.28-35.72-14.29-11.87,3-26.16,10.37-26.16,10.37-.12,6.68,3.92,7.49,3.92,7.49Zm8.49,9.99c-2.52,2.35.17,1.34,2.69.08,2.52-1.26,6.56-2.35,13.11-2.19s10.26,4.03,10.26,4.03l2.69-1.26s-2.27-6.56-12.1-6.89c-9.83-.34-16.64,6.22-16.64,6.22Zm33.3,7.31c2.3-3.41,3.09-6.66,1.11-5.47-1.98,1.19-6.02,3.49-6.02,3.49,0,0-7.45-3.65-15.85-3.65s-19.42,7.13-19.42,7.13c-2.38,1.66-1.27,1.58,1.82.24s9.59-2.54,18.07-2.14c8.48.4,13.23,4.99,13.23,4.99,0,0,4.75-1.19,7.05-4.6Zm2.16,3.7c1.19-.59,5.47-.92,7.45,0,1.98.92,3.23.13.2-1.91-3.03-2.04-7.98-.73-7.98-.73l-3.76,4.15s6.79,1.45,8.84,3.17c2.04,1.71,4.29,1.85,1.65-1.52-2.64-3.36-6.4-3.17-6.4-3.17Zm-30.86,3.45c4.85-2.51,10.15-1.25,13.28-.4,3.14.86,3.48.63,2.57-.63-.91-1.25-3.31-2.79-8.27-2.79-3.48,0-4.62.61-6.72,1.69-2.1,1.08-5.7,4.64-.86,2.13Zm10.26,56.32c-1.95,5.61-5.61,13.16-15.56,22.54-9.96,9.38-18.08,8.12-25.29,7.44-7.21-.69-13.16-4.23-12.93-9.61.23-5.38.57-12.7-1.03-17.05s-3.2-5.95-4.81-7.55c-1.6-1.6-1.14-4.69,1.37-5.72,2.52-1.03,4.69-.23,6.06,1.83,1.37,2.06,4.35,2.63,8.12.57,3.78-2.06,6.52-2.75,11.33-2.75s8.7.57,11.9,1.95c3.2,1.37,11.9,2.63,16.82,1.83,4.92-.8,5.95.92,4.01,6.52Zm-22.81,16.92c-11.57,3.2-23.53.7-23.53.7,0,0,1.41,6.41,10,5.16,10.1-1.47,13.52-5.86,13.52-5.86Zm17.74-18.99s-16.18,1.02-23.21,1.72-21.42.39-21.42.39l2.19,7.19s11.18,1.17,20.71.08c9.54-1.09,19.93-7.35,21.73-9.38Zm-108.16-.15c-3.19,3.71-6.32,7.48-9.32,11.33-2.55,3.28-6.2,7.01-7.1,11.15-.07.31.25.58.55.42,3.61-2.03,6.07-6.28,8.66-9.46,3.29-4.02,6.61-8.01,10.05-11.9,6.28-7.1,13.83-13.49,19.42-21.13.64-.88-.62-2.1-1.5-1.5-7.97,5.45-14.5,13.81-20.76,21.09Zm.27-26.74c1.19-.27.88-2.03-.28-2.07-8.19-.29-16.62,1.94-24.33,4.5-7.08,2.35-15.06,5.25-20.66,10.3-.32.29.02.84.42.72,7.46-2.28,14.34-6.2,21.84-8.49,7.56-2.31,15.33-3.23,23.01-4.96Zm3.06-31.23c.9-.06,1.24-1.55.23-1.69-11.65-1.62-23.74-1.4-35.49-1.32-11.67.08-23.91.18-35.32,2.83-.9.21-.71,1.65.22,1.61,11.73-.47,23.34-1.71,35.1-1.78,11.72-.07,23.57,1.08,35.26.34Zm-23.58-29.61c7.66,4.62,15.59,9.61,24.13,12.4,1.25.41,1.86-1.36.86-2.03-7.39-4.96-15.68-8.65-23.33-13.19-7.67-4.56-15.2-9.4-22.67-14.28-1-.66-2.27.92-1.3,1.69,7.12,5.64,14.54,10.73,22.32,15.42Zm36.43-10.4c.68.78,1.83-.21,1.38-1.07-3.86-7.26-8.89-14-13.22-20.99-4.36-7.03-8.7-14.08-12.84-21.25-.39-.68-1.39-.08-1.05.61,7.22,14.53,15.02,30.37,25.73,42.69Zm246.79-1.94c3.31-4.64,5.81-9.89,8.69-14.81,2.87-4.9,6.25-9.71,8.67-14.84.53-1.13-.95-2.57-1.87-1.44-3.64,4.47-6.4,9.86-9.13,14.92-2.72,5.06-5.67,10.23-7.39,15.73-.2.65.68.93,1.04.44Zm9.1,15.78c6.14-2.25,11.95-5.68,17.77-8.64,6.3-3.21,13.12-5.91,19.09-9.69,1.11-.7.42-2.67-.93-2.21-6.51,2.21-12.67,5.87-18.74,9.06-6.03,3.16-12.4,6.27-17.78,10.47-.47.37.04,1.21.59,1.01Zm61.12,10.16c-9.19-.31-18.62,1.54-27.71,2.83-9.67,1.38-19.55,2.7-28.96,5.33-.92.26-.78,1.83.23,1.73,9.21-.93,18.36-2.77,27.52-4.1,9.64-1.4,19.67-1.79,29.15-4.03,1.01-.24.75-1.73-.24-1.76Zm-19.72,38.63c-6.33-3.51-13.27-6.04-20.1-8.39-3.54-1.21-7.11-2.33-10.71-3.36-2.95-.85-5.68-2.16-8.61-1.09-.24.09-.32.36-.15.55,1.88,2.17,4.35,2.35,7.07,3.13,3.6,1.04,7.18,2.12,10.74,3.27,7.1,2.29,14.04,5.09,21.18,7.27.82.25,1.34-.97.59-1.39Zm-31.65,21.4c-3.18-3.65-6.41-9.66-10.67-12.02-.24-.14-.57-.16-.82,0-.2.13-.4.27-.61.4-.34.23-.3.78.12.89,1.84.5,4.83,5.86,6,7.35,1.88,2.4,3.78,4.78,5.82,7.04,3.96,4.4,8.18,8.31,13.55,10.92.9.44,1.54-.73.77-1.32-5.17-3.97-9.88-8.34-14.16-13.26Zm41.19,152.34c.41,1.12-1.29,2.15-2.06,1.2-.28-.35-.54-.72-.82-1.09-3.98,7.6-18.87,33.97-39.11,44.59-23.76,12.47-32.71,10.82-52.71,10.82H91.68c-21.8,0-43.34-14.66-48.42-18.36-1.11,2.28-2.21,4.57-3.3,6.86-.39.82-1.8.22-1.46-.62,5.65-14.05,12.58-27.66,20.62-40.5,6.75-10.79,14.85-20.87,25.83-27.59,11.57-7.09,24.97-10.26,38.15-12.76,14.04-2.66,27.88-4.3,40.49-11.33,1.74-3.55,3.27-7.17,4.08-11.28,1.27-6.42,1.02-12.91-.3-19.25-7.22,1.84-14.58,2.75-21.72,1.84-7.38-.94-14.82-4.84-19.53-10.66-4.02-4.97-5.07-10.72-5.7-16.9-1.61-15.86-13.91-28.37-15.22-44.16-7.82-6.75-9.74-17.46-9.03-27.48.28-3.86.88-7.74,2.06-11.43,1.04-3.27,2.4-6.45,3.8-9.59.52-1.16,1.41-2.53,2.1-3.88-3.22-2.67-3.03-7.29-3.03-7.29,1.08,1.28,2.34,1.96,3.38,2.33-.33-1.19-.72-2.58-.88-3.62-.48-3.04-.74-6.11-.74-9.18,0-5.68.94-11.26,2.18-16.79,2.74-12.26,5.83-24.45,8.95-36.63-2.39-3.48-7.35-10.5-11.47-14.81-5.64-5.91-11.54-21.47-3.76-37.04,7.78-15.57,26.57-19.86,40.8-18.79,14.23,1.07,37.31,2.95,55.83-2.42,18.52-5.37,59.59-10.2,77.84,15.84,0,0,28.72,6.98,39.19,26.04,10.47,19.06,5.1,42.41,1.61,63.08s-5.37,35.16,3.49,45.9,12.88,35.16,4.56,54.49c-8.32,19.33-11.27,22.28,1.07,42.68,12.35,20.4,14.23,27.92,8.86,37.85-2.45,4.53-7.41,8.83-14.5,11.84,3.56.63,7.1,1.29,10.6,1.88,9.6,1.62,19.33,3.18,28.31,7.14,8.55,3.78,15.53,9.97,21.25,17.28,5.1,6.52,10.32,13.99,13.18,21.81Zm-96.8-43.88c-6.69,9.03-15.24,17.07-23.74,23.66-23.3,18.07-53.05,27.45-82.5,26.29-13.29-.53-29.03-2.18-39.33-11.52-9.23-8.37-10.69-22.11-5.24-33-2.84.57-5.69,1.05-8.49,1.51-.02.07-.03.14-.06.22-8.59,21.14-17.17,42.28-25.76,63.43,10.57-1.61,21.14-3.22,31.71-4.82,6.88-1.05,13.75-2.09,20.63-3.14,3.47-.53,7.17-1.52,10.69-1.63,2.18-.07,4.26.86,6.35,1.49,5.31,1.62,10.63,3.23,15.94,4.85,21.71,6.6,43.41,13.2,65.12,19.8,1.43-3.29,2.85-6.58,4.28-9.87,11.16-25.77,22.33-51.53,33.49-77.3-1.01.03-2.04.04-3.09.03ZM127.03,144.66s0-2.9-5.5-8.4c-3.9-3.9-9.97-8.81-13.34-11.39-.3,3.01-.41,6.03-.24,9.03.05.84.18,1.71.35,2.6,7.81-7.5,18.73,8.17,18.73,8.17Zm32.33,164.96c.68-1.4,1.38-2.76,2.08-4.11-4.92,2.76-10.48,4.43-16.14,5.66-2.4,9.3-5.05,18.56.97,27.29,5.19,7.53,14.06,11.11,22.69,12.96,17.55,3.76,36.35,2.94,53.71-1.36,16.22-4.02,31.36-11.36,44.64-21.49,8.73-6.66,15.77-14.3,22.33-22.56-1.93-.13-3.91-.32-5.94-.6-25.5-3.49-42.14-19.86-42.41-38.38-.17-11.62,1.14-29.89,3.2-45.8-7.76,24.16-15.66,48.38-24.88,71.92-.23.6-1.16.37-.98-.27,7.87-27.26,17.59-54.19,27.2-80.96.91-5.71,1.92-10.79,2.97-14.67,0,0,13.15-1.61,24.16-16.64,11-15.03,9.39-35.43,4.03-38.11-5.37-2.68-13.42-1.88-17.45,5.64-4.03,7.52-7.52,5.37-12.08,1.07-4.56-4.29-15.57-15.57-16.91-31.67-1.34-16.11-7.78-25.77-16.37-33.55-8.59-7.78-30.06-11.54-44.83-7.25-14.76,4.29-30.33,5.91-30.33,5.91,0,0-13.47-3.42-19.36-7.3-1.74,6.86-3.48,13.72-5.17,20.58-1.63,6.6-3.6,13.4-4.97,20.25,8.77,7.93,22.13,24.93,21.85,32.13-.29,7.53-4.06,17.09-6.95,22.16-2.9,5.07-6.37,8.98-6.81,13.9-.43,4.92,8.84,10.72,8.84,10.72-7.68-3.04-11.59-7.24-11.88-10.72-.29-3.48.87-5.21,7.24-15.21,6.37-9.99,5.21-15.35,5.21-15.35-12.75,2.61-16.37-3.33-16.37-3.33l6.95.43s-2.03-1.45-1.74-4.2c.29-2.75,3.04-4.06,3.04-4.06,0,0-3.48-2.9-6.23-1.01-2.75,1.88-1.45,7.24-1.45,7.24l-2.03,1.45c.14,3.48,7.24,5.79,7.24,5.79-4.22.95-7.87-.15-10.14-1.2-1.7,3.72-3.21,7.53-4.12,11.49-1.18,5.13-1.52,10.61-.88,15.84.38,3.1,1.13,6.24,2.51,9.06,1.42,2.88,3.83,4.15,5.56,6.6.79,1.12.72,2.18.88,3.49.41,3.28,1.26,6.51,2.48,9.58,2.53,6.41,6.13,12.39,8.68,18.82,2.39,6.02,3.41,11.72,4.25,18.07.78,5.84,3.28,10.92,8.07,14.51,11.8,8.84,27.01,5.31,39.93,1.07,11.08-3.64,21.43-8.83,31.69-14.3,7.02-3.74,14.8-7.2,21.37-11.74,0-.02,0-.03.01-.06.18-.65.57-1.3.84-1.93.96-2.27,1.85-4.57,2.7-6.89,2.73-7.44,4.92-15.04,6.44-22.82.62-3.16,5.44-1.81,4.82,1.33-2,10.17-5.13,20.09-9.12,29.65-1.47,3.51-2.27,4.47-5.52,6.3-11.8,6.65-23.65,13.42-35.99,19.02-6.94,3.15-14.56,6.32-22.37,8.43,3.9,13,2.3,30.89-8.05,40.07-.63.56-1.49-.14-1.13-.88Z"/>
</svg>