<svg xmlns="http://www.w3.org/2000/svg" width="24" height="24" fill="none"><path fill="#4C38FF" d="M8 6.667H6.667V8H8V6.667ZM8 16H6.667v1.333H8V16ZM17.333 6.667H16V8h1.333V6.667Z"/><path stroke="#4C38FF" stroke-linejoin="round" d="M20 4H4v16h16V4Z"/><path fill="#3F3F3F" stroke="#4C38FF" stroke-linejoin="round" d="M8 6.667H6.667V8H8V6.667ZM8 16H6.667v1.333H8V16ZM17.333 6.667H16V8h1.333V6.667Z"/><path fill="#4C38FF" d="M6 13.667A.333.333 0 1 0 6 13a.333.333 0 0 0 0 .667ZM5.333 13a.333.333 0 1 0 0-.667.333.333 0 0 0 0 .667ZM6.666 13a.333.333 0 1 0 0-.667.333.333 0 0 0 0 .667ZM11.333 15.667a.333.333 0 1 0 0-.667.333.333 0 0 0 0 .667ZM13.333 13a.333.333 0 1 0 0-.667.333.333 0 0 0 0 .667ZM13.333 9.667a.333.333 0 1 0 0-.667.333.333 0 0 0 0 .667ZM10.666 5.667a.333.333 0 1 0 0-.667.333.333 0 0 0 0 .667ZM15.333 11a.333.333 0 1 0 0-.667.333.333 0 0 0 0 .667ZM17.333 11a.333.333 0 1 0 0-.667.333.333 0 0 0 0 .667ZM17.333 15a.333.333 0 1 0 0-.667.333.333 0 0 0 0 .667ZM18 16.333a.333.333 0 1 0 0-.666.333.333 0 0 0 0 .666ZM18.666 19a.333.333 0 1 0 0-.667.333.333 0 0 0 0 .667ZM10.666 19a.333.333 0 1 0 0-.667.333.333 0 0 0 0 .667ZM14.666 19a.333.333 0 1 0 0-.667.333.333 0 0 0 0 .667ZM15.333 18.333a.333.333 0 1 0 0-.666.333.333 0 0 0 0 .666ZM14.666 17.667a.333.333 0 1 0 0-.667.333.333 0 0 0 0 .667ZM5.333 11a.333.333 0 1 0 0-.667.333.333 0 0 0 0 .667ZM13.333 18.333a.333.333 0 1 0 0-.666.333.333 0 0 0 0 .666Z"/><path stroke="#4C38FF" stroke-linejoin="round" stroke-width=".7" d="M20 4H4v16h16V4Z"/><path stroke="#4C38FF" stroke-linejoin="round" stroke-width=".7" d="M9.333 5.333h-4v4h4v-4Z"/><path stroke="#4C38FF" stroke-linejoin="round" stroke-width=".7" d="M8 6.667H6.667V8H8V6.667ZM9.333 14.667h-4v4h4v-4Z"/><path stroke="#4C38FF" stroke-linejoin="round" stroke-width=".7" d="M8 16H6.667v1.333H8V16ZM18.667 5.333h-4v4h4v-4Z"/><path stroke="#4C38FF" stroke-linejoin="round" stroke-width=".7" d="M17.333 6.667H16V8h1.333V6.667Z"/><path stroke="#4C38FF" stroke-linecap="round" stroke-linejoin="round" stroke-width=".7" d="M6 12v-.667h2.667M6.667 11.333v-.666M8 11.333v2M8 12.667h.667M12.667 10.667V10M18.667 11.333H18M14 14h.667v-.667M9.333 10.667H10M11.333 10.667h2M12.667 5.333v1.334H12v2.666M12 8.667h-1.333v.666M12 6.667h-1.333"/><path stroke="#4C38FF" stroke-linecap="round" stroke-linejoin="round" stroke-width=".7" d="M12 7.333h-.667V6M9.333 12H12M10 12v1.333h-.667M11.333 12v.667M10.667 14.667V14h2v2H14v-.667h2.667v3.334"/><path stroke="#4C38FF" stroke-linecap="round" stroke-linejoin="round" stroke-width=".7" d="M12 13.333v1.334h2m1.333-1.334H14V16h.667M16 11.333v1.334h.667V14H16v1.333M16.667 12.667V12h.667M17.333 16.667H16v.666M10.667 17.333h.667V18H12v-1.333M18.667 10.667v2H18M14.667 12v-.667M18.667 14v.667M18 17.333h.667M13.333 7.333V8"/></svg>