<svg xmlns="http://www.w3.org/2000/svg" width="24" height="24" fill="none"><path fill="#4C38FF" d="M21 20.333v-2.666c0-2.334-1.333-3.334-2.667-3.334h-4c-.928 0-1.854.169-2.333 1.25-.375-1.104-1.405-1.567-2.333-1.567-1.667 0-1.667.317-4 .317-1.334 0-2.667 1-2.667 3.334v2.666M5 8.667c0 1.333.292 2.104.667 2.666.477.716 1.235 1 2 1 .793 0 1.522-.284 2-1 .374-.562.666-1.333.666-2.666 0-.716-.359-3-2.666-3-2.308 0-2.667 1.806-2.667 3ZM13.666 8.667c0 1.333.292 2.104.667 2.666.477.716 1.235 1 2 1 .793 0 1.522-.284 2-1 .374-.562.666-1.333.666-2.666 0-.716-.359-3-2.666-3-2.308 0-2.667 1.806-2.667 3Z"/><path stroke="#212125" stroke-linecap="round" stroke-linejoin="round" d="M12.148 20v-2.333c0-2.334 1.408-3.334 2.815-3.334h4.222c1.408 0 2.815 1 2.815 3.334V20M3 20v-2.333c0-2.334 1.407-3.334 2.815-3.334h4.222c.539 0 1.077.178 1.537.517"/><path stroke="#212125" stroke-linejoin="round" d="M5.111 8.667c0 1.333.309 2.104.704 2.666.504.716 1.304 1 2.111 1 .838 0 1.607-.284 2.111-1 .395-.562.704-1.333.704-2.666 0-.716-.379-3-2.815-3s-2.815 1.806-2.815 3ZM14.26 8.667c0 1.333.308 2.104.704 2.666.503.716 1.303 1 2.11 1 .838 0 1.607-.284 2.112-1 .395-.562.703-1.333.703-2.666 0-.716-.379-3-2.814-3-2.436 0-2.815 1.806-2.815 3Z"/></svg>