<svg xmlns="http://www.w3.org/2000/svg" width="16" height="16" fill="none"><path fill="#4C38FF" fill-rule="evenodd" d="M6.63 2.167h2.74c1.226 0 2.197 0 2.956.102.781.105 1.414.326 1.913.825.499.5.72 1.132.826 1.913.06.449.084.971.094 1.576a.5.5 0 0 1 .003.153c.005.377.005.785.005 1.227v.074c0 1.226 0 2.196-.102 2.956-.106.781-.327 1.414-.826 1.913-.5.499-1.132.72-1.913.825-.76.102-1.73.102-2.955.102H6.629c-1.225 0-2.196 0-2.955-.102-.781-.105-1.414-.326-1.913-.825-.5-.5-.72-1.132-.826-1.913-.102-.76-.102-1.73-.102-2.956v-.074c0-.442 0-.85.005-1.227a.505.505 0 0 1 .002-.153c.01-.605.035-1.127.095-1.576.106-.781.327-1.414.826-1.913.499-.499 1.132-.72 1.913-.825.76-.102 1.73-.102 2.955-.102Zm-4.795 5c-.002.258-.002.536-.002.833 0 1.271.002 2.175.094 2.86.09.67.259 1.057.54 1.339.283.282.67.451 1.34.541.686.092 1.588.093 2.86.093h2.666c1.272 0 2.175-.001 2.86-.093.67-.09 1.057-.26 1.339-.541.282-.282.451-.669.541-1.34.092-.685.094-1.588.094-2.859 0-.297 0-.575-.002-.833H1.835Zm12.314-1H1.851c.013-.392.036-.73.076-1.027.09-.67.259-1.057.54-1.339.283-.282.67-.451 1.34-.541.686-.092 1.588-.093 2.86-.093h2.666c1.272 0 2.175.001 2.86.093.67.09 1.057.26 1.339.541.282.282.451.669.541 1.34.04.296.063.634.076 1.026Zm-10.65 4.5a.5.5 0 0 1 .5-.5h2.668a.5.5 0 0 1 0 1H4a.5.5 0 0 1-.5-.5Zm4.334 0a.5.5 0 0 1 .5-.5h1a.5.5 0 0 1 0 1h-1a.5.5 0 0 1-.5-.5Z" clip-rule="evenodd"/></svg>