<svg xmlns="http://www.w3.org/2000/svg" width="1000" height="299" fill="none"><g clip-path="url(#a)"><path fill="#000" d="M150.6 70.7c0-16.1-7.8-28.7-30.6-28.7H41.8v96.8h21.7v-34h50.1c11.3 0 14.2 3.2 14.2 14.5v19.6h21.7v-23.1c0-11.5-4.1-18.2-13.1-20.5 9.4-3.3 14.2-12.4 14.2-24.6Zm-33.5 13.7H63.5v-22h53.6c8 0 11.8 4.3 11.8 10.7 0 6.4-3.2 11.3-11.8 11.3Zm873.3 75.8h8V257h-21.7v-68.6L931.9 257H907v-96.8h21.7v66.2l32.7-50.7c8.3-12.8 15.5-15.5 29-15.5Zm-423.8-21.4v-20.6c8.8 0 11-5.4 12.9-23.3l5.9-52.8h77.7v96.8h-21.7V62.5H604l-3.8 37c-3.3 31.8-11.9 40.4-33.6 39.3ZM0 299.1h191.4V-.1H0v299.2ZM20.9 20.8h149.6v257.3H20.9V20.8Zm106.9 139.4h21.7V257H80.1c-27.9 0-38.3-10.5-38.3-38.3v-58.4h21.7v59c0 12.3 4.8 17.4 16.1 17.4h48.2v-76.5Zm577.4-53.9h48v32.4h21.7V42h-55.7c-27.3 0-35.6 7.5-35.6 35.6v61.1h21.7v-32.4h-.1Zm13.9-43.9h34v23.9h-48v-8.6c.1-11 1.4-15.3 14-15.3Zm-258.9 40.7V77.6c0-27.9 7.8-35.6 35.6-35.6h56.8v20.4h-57.9c-11.3 0-12.9 1.9-12.9 14.2v3.2h54.9v20.1h-54.9v4.3c0 12.3 1.6 14.2 12.9 14.2h58.7v20.4h-57.6c-27.8 0-35.6-8.1-35.6-35.7ZM964.4 42h-23.9c-27.6 0-35.6 7.8-35.6 35.6v25.5c0 27.6 10.7 35.6 38.3 35.6h18.5c27.9 0 38.3-8 38.3-35.6V77.6c0-27.8-7.8-35.6-35.6-35.6Zm13.9 61.1c0 12.3-2.7 15.3-13.9 15.3h-23.9c-11.3 0-13.9-2.9-13.9-15.3V77.6c0-12.3 2.7-15.3 13.9-15.3h23.9c11.3 0 13.9 2.9 13.9 15.3v25.5Zm-371.8 57.1H666v12.1c0 9.6-.8 17.7-2.9 24.9h-18.5v-16.6h-38.1c-11.3 0-13.9 2.9-13.9 15.3v25.5c0 12.3 2.7 15.3 13.9 15.3H666V257h-59.5c-27.6 0-35.6-8-35.6-35.6v-25.5c0-27.9 8-35.7 35.6-35.7ZM435.8 42h-79.1l-4.8 49c-2.4 23.3-5.9 27.1-12.3 27.1h-1.3v29.8h20.6l.8-12.3h63.8l.8 12.3h20.6v-30h-9.1V42Zm-60 20.4h38.3v53.1h-46.4c3-5.2 4.2-12.4 5.2-21.7l2.9-31.4ZM520 160.2h-25.7c-27.6 0-35.6 7.8-35.6 35.6v25.5c0 27.6 8 35.6 35.6 35.6H520c27.9 0 35.6-8 35.6-35.6v-25.5c0-27.8-7.8-35.6-35.6-35.6Zm13.9 61.1c0 12.3-2.7 15.3-13.9 15.3h-25.7c-11.3 0-13.9-2.9-13.9-15.3v-25.5c0-12.3 2.7-15.3 13.9-15.3H520c11.3 0 13.9 2.9 13.9 15.3v25.5ZM717 160.2h59.8v12.1c0 9.6-.8 17.7-2.9 24.9h-18.5v-16.6H717c-11.3 0-13.9 2.9-13.9 15.3v25.5c0 12.3 2.7 15.3 13.9 15.3h59.8V257H717c-27.6 0-35.6-8-35.6-35.6v-25.5c-.1-27.9 8-35.7 35.6-35.7Zm-406.3 45.6c5.1-3.1 9.3-9.7 9.3-19.9 0-13.1-7.5-25.7-29.8-25.7h-56.8V257h59c21.4 0 31.9-11 31.9-28.9 0-12.1-6.9-19.3-13.6-22.3Zm-12.4-16.6c0 5.9-2.9 9.1-10.5 9.1h-32.7v-17.4h32.7c7.6 0 10.5 2.6 10.5 8.3Zm-5.6 47.4h-37.5v-18.8h37.5c7.2 0 9.9 3.5 9.9 9.1 0 5.7-2.7 9.7-9.9 9.7ZM864.9 42h21.7v96.8h-21.7V99.9h-48v38.9h-21.7V42h21.7v37.5h48V42Zm-599 0h59.2v12.1c0 9.6-.8 17.7-2.9 24.9h-18.5V62.4h-37.8c-11.3 0-13.9 2.9-13.9 15.3v25.5c0 12.3 2.7 15.3 13.9 15.3h59.2v20.4h-59.2c-27.6 0-35.6-8-35.6-35.6V77.8c-.1-28 8-35.8 35.6-35.8Zm612.7 118.2h8V257h-21.7v-68.6L820.2 257h-24.9v-96.8H817v66.2l32.7-50.7c8.2-12.8 15.5-15.5 28.9-15.5Zm-467.2 0h-63.3v19l11.3 1.6V257h21.7v-24.9h30.3c24.9 0 33.5-12.6 33.5-32.2v-7.5c0-18.5-8-32.2-33.5-32.2Zm12.1 38.9c0 9.1-3.5 12.6-12.1 12.6h-30.3v-31.1h30.3c8.6 0 12.1 4.3 12.1 12.6v5.9Z"/></g><defs><clipPath id="a"><path fill="#fff" d="M0 0h1000v299H0z"/></clipPath></defs></svg>